# xmcd
#
# Track frame offsets: 
#        150
#        20400
#        42660
#        59767
#        106382
#        136090
#        161985
#
# Disc length: 2765 seconds
#
# Revision: 8
# Processed by: cddbd v1.5.2PL0 Copyright (c) Steve Scherf et al.
# Submitted via: ExactAudioCopy v1.0b6
#
DISCID=630acb07
DTITLE=Albert King - Blues At Sunrise (Montreux 1973)
DYEAR=1973
DGENRE=Blues
TTITLE0=Don't Burn Down The Bridge ('Cause You Might Wanna Come Back A
TTITLE0=cross)
TTITLE1=I Believe To My Soul
TTITLE2=For The Love Of A Woman
TTITLE3=Blues At Sunrise
TTITLE4=I'll Play The Blues For You
TTITLE5=Little Brother (Make A Way)
TTITLE6=Roadhouse Blues
EXTD=
EXTT0=
EXTT1=
EXTT2=
EXTT3=
EXTT4=
EXTT5=
EXTT6=
PLAYORDER=
